<svg width="24" height="24" viewBox="0 0 24 24" fill="none" xmlns="http://www.w3.org/2000/svg">
<g filter="url(#filter0_d_6477_411)">
<rect x="4" y="3" width="16" height="16" rx="5" fill="#D92424"/>
</g>
<path d="M12.2856 10.4726C12.2098 10.4726 12.1371 10.4425 12.0835 10.389C12.03 10.3354 11.9999 10.2627 11.9999 10.1869V7.32978C11.9999 7.25401 12.03 7.18133 12.0835 7.12775C12.1371 7.07417 12.2098 7.04407 12.2856 7.04407C12.3614 7.04407 12.434 7.07417 12.4876 7.12775C12.5412 7.18133 12.5713 7.25401 12.5713 7.32978V10.1869C12.5713 10.2627 12.5412 10.3354 12.4876 10.389C12.434 10.4425 12.3614 10.4726 12.2856 10.4726ZM15.9999 11.3298C15.9994 10.5619 15.761 9.81301 15.3173 9.18623C14.8737 8.55944 14.2468 8.08555 13.5227 7.82978C13.4535 7.81203 13.3801 7.82089 13.317 7.85461C13.254 7.88832 13.2059 7.94445 13.1822 8.01191C13.1585 8.07936 13.161 8.15325 13.1891 8.21897C13.2172 8.2847 13.269 8.33749 13.3341 8.36692C14.033 8.61425 14.6219 9.10063 14.9968 9.74012C15.3717 10.3796 15.5086 11.1311 15.3831 11.8617C15.2576 12.5923 14.8779 13.255 14.3111 13.7328C13.7443 14.2105 13.0269 14.4726 12.2856 14.4726C11.5443 14.4726 10.8268 14.2105 10.26 13.7328C9.69322 13.255 9.31354 12.5923 9.18807 11.8617C9.06259 11.1311 9.19941 10.3796 9.57434 9.74012C9.94927 9.10063 10.5382 8.61425 11.237 8.36692C11.2754 8.35709 11.3113 8.33939 11.3424 8.31494C11.3736 8.29049 11.3993 8.25983 11.418 8.22491C11.4367 8.18998 11.4479 8.15155 11.4509 8.11207C11.454 8.07258 11.4488 8.03289 11.4356 7.99552C11.4225 7.95815 11.4018 7.92391 11.3747 7.89499C11.3477 7.86606 11.3149 7.84308 11.2785 7.82749C11.2421 7.81191 11.2028 7.80406 11.1632 7.80446C11.1236 7.80485 11.0845 7.81348 11.0484 7.82978C10.4062 8.05663 9.83878 8.4557 9.40812 8.98333C8.97745 9.51097 8.70015 10.1469 8.60654 10.8215C8.51293 11.4961 8.60662 12.1835 8.87735 12.8084C9.14809 13.4334 9.58545 13.9719 10.1416 14.365C10.6978 14.7582 11.3513 14.9908 12.0308 15.0375C12.7103 15.0842 13.3895 14.9432 13.9943 14.6299C14.599 14.3166 15.106 13.843 15.4597 13.261C15.8134 12.6789 16.0003 12.0109 15.9999 11.3298Z" fill="white"/>
<defs>
<filter id="filter0_d_6477_411" x="0" y="0" width="24" height="24" filterUnits="userSpaceOnUse" color-interpolation-filters="sRGB">
<feFlood flood-opacity="0" result="BackgroundImageFix"/>
<feColorMatrix in="SourceAlpha" type="matrix" values="0 0 0 0 0 0 0 0 0 0 0 0 0 0 0 0 0 0 127 0" result="hardAlpha"/>
<feOffset dy="1"/>
<feGaussianBlur stdDeviation="2"/>
<feComposite in2="hardAlpha" operator="out"/>
<feColorMatrix type="matrix" values="0 0 0 0 0.0470588 0 0 0 0 0.0470588 0 0 0 0 0.0509804 0 0 0 0.05 0"/>
<feBlend mode="normal" in2="BackgroundImageFix" result="effect1_dropShadow_6477_411"/>
<feBlend mode="normal" in="SourceGraphic" in2="effect1_dropShadow_6477_411" result="shape"/>
</filter>
</defs>
</svg>
