<svg width="36" height="36" viewBox="0 0 36 36" fill="none" xmlns="http://www.w3.org/2000/svg">
<g filter="url(#filter0_d_6180_1271)">
<rect x="4" y="3" width="28" height="28" rx="5" fill="#26293C"/>
</g>
<path d="M18.5 16.0773C18.3674 16.0773 18.2402 16.0246 18.1464 15.9308C18.0527 15.8371 18 15.7099 18 15.5773V10.5773C18 10.4447 18.0527 10.3175 18.1464 10.2237C18.2402 10.1299 18.3674 10.0773 18.5 10.0773C18.6326 10.0773 18.7598 10.1299 18.8536 10.2237C18.9473 10.3175 19 10.4447 19 10.5773V15.5773C19 15.7099 18.9473 15.8371 18.8536 15.9308C18.7598 16.0246 18.6326 16.0773 18.5 16.0773ZM25 17.5773C24.9992 16.2335 24.5819 14.9229 23.8056 13.826C23.0293 12.7292 21.9321 11.8999 20.665 11.4523C20.5438 11.4212 20.4154 11.4367 20.305 11.4957C20.1947 11.5547 20.1105 11.6529 20.0691 11.771C20.0276 11.889 20.032 12.0183 20.0812 12.1334C20.1304 12.2484 20.221 12.3408 20.335 12.3923C21.5579 12.8251 22.5885 13.6763 23.2447 14.7954C23.9008 15.9145 24.1402 17.2295 23.9206 18.5081C23.7011 19.7866 23.0366 20.9464 22.0447 21.7825C21.0528 22.6186 19.7973 23.0771 18.5 23.0771C17.2027 23.0771 15.9472 22.6186 14.9553 21.7825C13.9634 20.9464 13.2989 19.7866 13.0794 18.5081C12.8598 17.2295 13.0992 15.9145 13.7553 14.7954C14.4115 13.6763 15.4421 12.8251 16.665 12.3923C16.7321 12.3751 16.795 12.3441 16.8495 12.3013C16.904 12.2585 16.9491 12.2049 16.9818 12.1437C17.0144 12.0826 17.0341 12.0154 17.0394 11.9463C17.0447 11.8772 17.0356 11.8077 17.0126 11.7423C16.9897 11.6769 16.9534 11.617 16.906 11.5664C16.8587 11.5158 16.8013 11.4755 16.7376 11.4483C16.6739 11.421 16.6052 11.4073 16.5359 11.408C16.4666 11.4086 16.3982 11.4237 16.335 11.4523C15.2112 11.8493 14.2181 12.5476 13.4644 13.471C12.7108 14.3944 12.2255 15.5072 12.0617 16.6878C11.8979 17.8683 12.0618 19.0712 12.5356 20.1649C13.0094 21.2586 13.7748 22.201 14.7481 22.8889C15.7214 23.5769 16.8651 23.9841 18.0542 24.0658C19.2433 24.1476 20.4319 23.9008 21.4902 23.3525C22.5485 22.8042 23.4357 21.9754 24.0547 20.9569C24.6737 19.9383 25.0007 18.7692 25 17.5773Z" fill="white"/>
<defs>
<filter id="filter0_d_6180_1271" x="0" y="0" width="36" height="36" filterUnits="userSpaceOnUse" color-interpolation-filters="sRGB">
<feFlood flood-opacity="0" result="BackgroundImageFix"/>
<feColorMatrix in="SourceAlpha" type="matrix" values="0 0 0 0 0 0 0 0 0 0 0 0 0 0 0 0 0 0 127 0" result="hardAlpha"/>
<feOffset dy="1"/>
<feGaussianBlur stdDeviation="2"/>
<feComposite in2="hardAlpha" operator="out"/>
<feColorMatrix type="matrix" values="0 0 0 0 0.0470588 0 0 0 0 0.0470588 0 0 0 0 0.0509804 0 0 0 0.05 0"/>
<feBlend mode="normal" in2="BackgroundImageFix" result="effect1_dropShadow_6180_1271"/>
<feBlend mode="normal" in="SourceGraphic" in2="effect1_dropShadow_6180_1271" result="shape"/>
</filter>
</defs>
</svg>
