<svg width="16" height="16" viewBox="0 0 16 16" fill="none" xmlns="http://www.w3.org/2000/svg">
<path d="M1.2002 14.2825L8.0002 2.50378L14.8014 14.2825H1.2002Z" fill="#FFB74D"/>
<path d="M15.8833 14.4913L8.36082 1.46253C8.28582 1.33378 8.14832 1.25378 7.99957 1.25378C7.85082 1.25378 7.71332 1.33378 7.63957 1.46253L0.11582 14.4913C0.0408203 14.62 0.0408203 14.7788 0.11582 14.9088C0.19082 15.0375 0.32832 15.1163 0.47707 15.1163H15.5221C15.6708 15.1163 15.8083 15.0375 15.8833 14.9088C15.9571 14.7788 15.9571 14.62 15.8833 14.4913ZM1.19957 14.2825L7.99957 2.50378L14.8008 14.2825H1.19957Z" fill="#FFB74D"/>
<path d="M7.38992 10.4013H8.60992C8.65492 10.4013 8.69117 10.3726 8.69367 10.3351L9.02617 5.55132C9.02742 5.53132 9.01992 5.51382 9.00367 5.49882C8.98666 5.48413 8.96489 5.47613 8.94242 5.47632H7.05742C7.03367 5.47632 7.01117 5.48507 6.99617 5.49882C6.98881 5.5054 6.98298 5.5135 6.97909 5.52257C6.9752 5.53165 6.97335 5.54146 6.97367 5.55132L7.30742 10.3351C7.30867 10.3713 7.34492 10.4013 7.38992 10.4013ZM7.01367 12.9151C7.01367 12.7388 7.03867 12.5901 7.08992 12.4688C7.13992 12.3463 7.20992 12.2476 7.29992 12.1726C7.38992 12.0976 7.49492 12.0426 7.61742 12.0088C7.73867 11.9751 7.86867 11.9576 8.00867 11.9576C8.13992 11.9576 8.26492 11.9751 8.38367 12.0088C8.50242 12.0426 8.60617 12.0976 8.69492 12.1726C8.78492 12.2476 8.85617 12.3451 8.90867 12.4688C8.96117 12.5901 8.98742 12.7388 8.98742 12.9151C8.98742 13.0838 8.96117 13.2288 8.90867 13.3476C8.85617 13.4676 8.78492 13.5676 8.69492 13.6463C8.60617 13.7251 8.50242 13.7826 8.38367 13.8176C8.26492 13.8526 8.13992 13.8713 8.00867 13.8713C7.86992 13.8713 7.73992 13.8538 7.61742 13.8176C7.49492 13.7813 7.38992 13.7251 7.29992 13.6463C7.20712 13.5649 7.13512 13.4625 7.08992 13.3476C7.03867 13.2276 7.01367 13.0838 7.01367 12.9151Z" fill="#2F2F2F"/>
</svg>
