<svg width="107" height="40" viewBox="0 0 107 40" fill="none" xmlns="http://www.w3.org/2000/svg">
<path d="M95.2589 21.5357L98.4626 21.6073C98.4626 21.6073 98.4762 21.7021 98.4626 21.7601C98.4553 21.7915 98.4456 21.8072 98.4341 21.8372C98.3499 22.0575 98.2928 22.1785 98.1722 22.3795C98.1002 22.4994 98.0542 22.5629 97.972 22.6753C97.8667 22.8194 97.8019 22.8957 97.6858 23.0306C97.5178 23.2257 97.4172 23.3294 97.2334 23.5084C97.0922 23.646 97.0136 23.7246 96.8613 23.8487C96.7021 23.9784 96.6107 24.0502 96.4355 24.1552C96.3458 24.209 96.2003 24.2827 96.2003 24.2827C96.2003 24.2827 95.9455 24.4176 95.7765 24.4905C95.3736 24.6644 95.1277 24.718 94.7052 24.8102L94.6898 24.8136C93.881 24.9901 93.4052 24.9446 92.5793 24.973C91.5214 25.0094 90.9235 25.0225 89.8692 24.9236C89.7143 24.9091 89.6242 24.8989 89.4758 24.8823L89.4525 24.8796C89.3542 24.8686 89.2987 24.8658 89.201 24.8503C89.0896 24.8326 89.028 24.8168 88.9179 24.7916C88.8006 24.7648 88.7351 24.7483 88.619 24.7165C88.4475 24.6695 88.3511 24.6376 88.1853 24.5828L88.174 24.579C88.0436 24.5359 87.9694 24.5148 87.8417 24.4636C87.6813 24.3993 87.5952 24.3532 87.4408 24.2748C87.2726 24.1894 87.179 24.1394 87.017 24.042C86.8539 23.944 86.7636 23.8863 86.609 23.7744C86.4284 23.6438 86.3312 23.564 86.1641 23.4151C86.0495 23.3131 85.984 23.2567 85.8792 23.1439C85.7701 23.0264 85.7161 22.9533 85.619 22.825C85.4773 22.6379 85.4 22.5301 85.2813 22.3264C85.1612 22.1202 85.0991 21.9999 85.0096 21.7774C84.9063 21.5204 84.8671 21.3675 84.8039 21.0967C84.7466 20.8508 84.7181 20.7107 84.694 20.4588C84.6551 20.0521 84.6807 19.8191 84.7213 19.4125C84.7433 19.1918 84.7536 19.0668 84.8001 18.8502C84.8285 18.7177 84.8493 18.6444 84.8878 18.5147C84.9418 18.3328 84.9693 18.2286 85.0471 18.0564C85.0815 17.9803 85.1048 17.9397 85.1427 17.8654C85.2506 17.6541 85.2988 17.5271 85.4305 17.3311C85.5219 17.1949 85.5825 17.1236 85.6864 17.0012L85.6925 16.994C85.8009 16.8664 85.8646 16.7972 85.9834 16.6802C86.0964 16.5689 86.1618 16.5081 86.2844 16.4084C86.3926 16.3204 86.4578 16.2751 86.57 16.1971L86.5767 16.1925C86.7022 16.1053 86.7734 16.0575 86.9044 15.9797C87.1002 15.8634 87.215 15.8068 87.4215 15.7129C87.7263 15.5743 87.9032 15.507 88.2243 15.417C88.5025 15.339 88.6624 15.3079 88.9478 15.2674C89.1129 15.244 89.2063 15.2385 89.3722 15.2229C89.6115 15.2004 89.746 15.1923 89.9858 15.1752C90.1717 15.1618 90.2758 15.1524 90.462 15.1433C91.1623 15.1089 91.5559 15.1701 92.257 15.1752C92.7398 15.1787 93.0108 15.1578 93.4933 15.1752C93.7439 15.1842 93.8848 15.1857 94.1344 15.2101C94.2682 15.2232 94.343 15.234 94.4763 15.2515C94.6076 15.2688 94.6816 15.2761 94.8121 15.2993C95.0339 15.3386 95.1572 15.3696 95.3738 15.4329C95.5488 15.4841 95.6459 15.5171 95.8165 15.5825C96.0081 15.6559 96.117 15.6957 96.2988 15.7925C96.4101 15.8517 96.4688 15.8921 96.5766 15.9579C96.71 16.0393 96.7879 16.08 96.9154 16.171C97.0792 16.2879 97.1619 16.367 97.3123 16.5019C97.4485 16.624 97.5272 16.6908 97.6511 16.8264C97.7744 16.9611 97.839 17.0419 97.9442 17.1923C98.0789 17.3847 98.2484 17.7134 98.2484 17.7134C98.3051 17.8194 98.3398 17.8775 98.3887 17.9876C98.4352 18.0923 98.4939 18.2619 98.4939 18.2619H100L96.673 20.7958H96.6035L92.9406 18.2023H94.9688C94.9688 18.2023 94.8848 18.1224 94.8261 18.0776C94.7394 18.0114 94.6868 17.9786 94.5895 17.931C94.4715 17.8732 94.3976 17.8603 94.2729 17.821C94.1882 17.7943 94.1408 17.7785 94.0548 17.757C93.9101 17.7208 93.8269 17.709 93.6793 17.69C93.599 17.6797 93.5535 17.6758 93.4736 17.669L93.4712 17.6688C93.3075 17.655 93.2153 17.6547 93.0512 17.6475C92.0099 17.6019 91.4237 17.6018 90.3824 17.6475C90.2811 17.652 90.224 17.6508 90.1229 17.66C90.0667 17.6652 90.0352 17.6688 89.9792 17.6766C89.8844 17.6899 89.8318 17.7022 89.7377 17.7203C89.6424 17.7387 89.5886 17.7472 89.4942 17.7703C89.3871 17.7966 89.3257 17.8088 89.2228 17.8494C89.135 17.884 89.0898 17.9132 89.0052 17.9554C88.9238 17.9961 88.8772 18.0171 88.7976 18.0615C88.6944 18.1192 88.6363 18.1521 88.5401 18.2218C88.376 18.3406 88.2896 18.4196 88.1569 18.5755C88.0416 18.7109 87.9856 18.7961 87.8979 18.9524C87.8188 19.0935 87.782 19.1778 87.725 19.33C87.674 19.4665 87.6494 19.5452 87.6167 19.6877C87.6036 19.7449 87.5963 19.7771 87.5872 19.8351C87.552 20.0572 87.5541 20.189 87.5872 20.4114C87.5962 20.4726 87.6031 20.5066 87.6167 20.5668C87.6481 20.7057 87.6745 20.7817 87.725 20.9143C87.7801 21.0588 87.809 21.1428 87.8905 21.2731C87.976 21.41 88.0445 21.4717 88.1532 21.5895C88.2492 21.6935 88.3027 21.7533 88.4107 21.8437C88.525 21.9393 88.595 21.9859 88.7225 22.0612C88.9459 22.1931 89.0862 22.2411 89.332 22.3182C89.5579 22.3891 89.6885 22.4227 89.9231 22.4482C90.1568 22.4736 90.2899 22.4482 90.5249 22.4482C90.8825 22.4482 91.0831 22.452 91.4407 22.4482C91.7867 22.4445 91.9809 22.4461 92.3265 22.4295C92.7334 22.4099 92.9614 22.3912 93.3664 22.3461C93.7275 22.3059 93.9304 22.2827 94.2881 22.2177C94.6639 22.1494 95.0146 22.1743 95.1684 21.8178C95.1913 21.7649 95.2137 21.6768 95.2137 21.6768L95.2589 21.5357Z" fill="#F18520"/>
<path d="M10.8831 15.1156V24.739H8V15.1156H10.8831Z" fill="white"/>
<path d="M21.9794 24.9399C21.6173 24.9399 21.2691 24.8536 20.8234 24.422L15.1129 19.1284V24.7817H12.4945V16.7981C12.4945 15.5179 13.2466 15 14.0683 15C14.4165 15 14.7647 15.0863 15.2244 15.5179L20.9348 20.8115V15.1582H23.5672V23.1274C23.5672 24.4077 22.8151 24.9399 21.9794 24.9399Z" fill="white"/>
<path d="M29.9493 21.4876L28.1247 19.0565H36.5929V24.7817H30.2C26.9687 24.7817 24.587 22.6671 24.587 19.8765C24.587 17.057 26.9687 15.1582 30.2 15.1582H36.8715L35.0051 17.6612H30.2C28.64 17.6612 27.4562 18.6394 27.4562 20.0059C27.4562 21.4013 28.5983 22.3075 30.2 22.3075H33.5845V21.4876H29.9493Z" fill="white"/>
<path d="M40.1779 22.4409H47.3834L45.634 24.8752H37.3028V15.1993H47.4964L45.7339 17.5188H40.1779V18.6125H46.8704L45.0963 21.1869H40.1779V22.4409Z" fill="white"/>
<path d="M57.8433 24.9809C57.4811 24.9809 57.1329 24.8946 56.6873 24.4631L50.9768 19.1695V24.8227H48.3584V16.8391C48.3584 15.5589 49.1105 15.041 49.9322 15.041C50.2804 15.041 50.6286 15.1273 51.0882 15.5589L56.7987 20.8525V15.1993H59.4311V23.1684C59.4311 24.4487 58.6789 24.9809 57.8433 24.9809Z" fill="white"/>
<path d="M63.3029 22.2636H70.5084L68.759 24.6979H60.4278V15.0219H70.6214L68.8589 17.3415H63.3029V18.4352H69.9954L68.2213 21.0096H63.3029V22.2636Z" fill="white"/>
<path d="M82.8055 22.9365L85.0905 24.8946H80.9206L77.9918 22.3265H74.0119V24.8946H71.104V19.9325H79.28C80.1791 19.9325 80.8815 19.5118 80.8815 18.8444C80.8815 18.0899 80.2774 17.7127 79.28 17.7127H71.104L73.0005 15.1881H79.0412C81.1765 15.1881 83.8737 15.8846 83.8737 18.6558C83.8737 20.1647 83.3088 21.6282 81.7635 21.9474C82.0866 22.1941 82.1592 22.2546 82.8055 22.9365Z" fill="white"/>
</svg>
