<svg width="69" height="14" viewBox="0 0 69 14" fill="none" xmlns="http://www.w3.org/2000/svg">
<g clip-path="url(#clip0_6180_1279)">
<path d="M0.349242 1.11753C0.425351 0.79254 0.725313 0.546474 1.04766 0.551117C1.86696 0.546474 2.68626 0.551117 3.50556 0.546474C3.72493 0.537188 3.94431 0.620758 4.09205 0.787897C4.23532 0.936465 4.28009 1.15003 4.33829 1.34038C5.42173 4.76673 6.50518 8.18844 7.58415 11.6101C7.83486 10.8255 8.0811 10.0363 8.33181 9.25163C8.50194 9.78555 8.67207 10.3195 8.83772 10.8534C8.66312 11.5034 8.43479 12.1348 8.24675 12.7755C8.16616 13.0494 7.91097 13.2676 7.62892 13.263C6.60815 13.263 5.58291 13.263 4.56214 13.263C4.2577 13.2583 3.97565 13.0262 3.89506 12.7198C2.75789 9.12628 1.62072 5.52815 0.483553 1.93001C0.402966 1.67002 0.273132 1.3961 0.349242 1.11753ZM11.0046 0.783254C11.0359 0.685756 11.0897 0.57433 11.2016 0.555759C11.412 0.546474 11.6314 0.541831 11.8463 0.560402C11.9985 0.583616 12.0522 0.773969 11.994 0.908608C11.618 2.09715 11.2508 3.28105 10.8658 4.46496C10.6957 3.9233 10.5256 3.38319 10.3554 2.84464C10.5748 2.15751 10.7897 1.47038 11.0046 0.783254Z" fill="#09B5E7"/>
<path d="M5.89123 1.11757C5.96287 0.778646 6.28521 0.537223 6.61652 0.551152C7.43731 0.548056 8.25661 0.546509 9.07441 0.546509C9.30274 0.546509 9.53555 0.648649 9.67434 0.839002C9.79074 0.996855 9.82656 1.19185 9.88476 1.37756C10.0459 1.86505 10.1937 2.35254 10.3548 2.84467C10.525 3.38323 10.6951 3.92334 10.8652 4.46499C11.6129 6.84672 12.3695 9.22845 13.1217 11.6102C14.2678 7.99812 15.405 4.38606 16.5466 0.774004C16.569 0.662578 16.6496 0.555794 16.766 0.551152C16.963 0.546509 17.1644 0.541866 17.3659 0.555794C17.5316 0.574365 17.5987 0.783289 17.5271 0.922572C16.2765 4.88438 15.0244 8.84465 13.7708 12.8034C13.6902 13.0819 13.4171 13.2769 13.1396 13.263C12.1367 13.263 11.1339 13.263 10.131 13.263C9.82208 13.2723 9.52659 13.0448 9.43705 12.743C9.23559 12.1116 9.04307 11.4802 8.83713 10.8534C8.67148 10.3195 8.50135 9.78558 8.33122 9.25166C7.57013 6.81422 6.79112 4.38142 6.02555 1.94398C5.94496 1.67934 5.81512 1.40077 5.89123 1.11757Z" fill="#3A5896"/>
<path fill-rule="evenodd" clip-rule="evenodd" d="M39.7334 0.565104C39.9662 0.509391 40.2035 0.54189 40.4408 0.532604C40.696 0.537247 40.9825 0.495462 41.2108 0.657959C41.4213 0.811169 41.4705 1.09438 41.4705 1.34509C41.4705 4.3443 41.4705 7.34507 41.4705 10.3474C41.4795 10.6399 41.5332 10.9741 41.7705 11.1599C41.9899 11.3502 42.3256 11.2527 42.5316 11.4709C42.7375 11.6938 42.6883 12.0281 42.6972 12.3113C42.6972 12.6038 42.7151 12.952 42.4868 13.1702C42.2943 13.3559 42.0167 13.342 41.7705 13.3373C41.1526 13.3234 40.499 13.1748 40.0334 12.7337C39.5633 12.288 39.3663 11.6195 39.2991 10.9834C39.2499 10.3474 39.2723 9.71132 39.2678 9.07526C39.2678 6.49854 39.2678 3.91717 39.2678 1.34044C39.2544 1.01545 39.3932 0.630102 39.7334 0.565104ZM52.6542 0.662601C52.8109 0.54189 53.0079 0.527962 53.1959 0.532604C53.4556 0.537247 53.7197 0.527962 53.9794 0.537247C54.1987 0.551175 54.4271 0.671887 54.5211 0.885453C54.6106 1.08045 54.5838 1.30794 54.5883 1.51687C54.5883 3.45444 54.5883 5.39356 54.5883 7.33423C54.9509 7.32959 55.3091 7.33423 55.6717 7.32959C56.3209 6.35925 56.97 5.39356 57.6237 4.42787C57.8834 4.08431 58.3311 4.09824 58.7071 4.11216C59.034 4.13538 59.41 4.03324 59.6831 4.26073C59.898 4.45108 59.813 4.79001 59.6697 4.99429C58.9355 6.0714 58.1923 7.13924 57.4536 8.21635C58.3132 9.58597 59.1772 10.9509 60.0368 12.3205C60.1532 12.5155 60.2428 12.7662 60.1443 12.9891C60.0413 13.1887 59.804 13.2491 59.5981 13.2491C59.2489 13.2491 58.8952 13.2491 58.5415 13.2491C58.255 13.2445 57.9684 13.082 57.8252 12.8173C57.1238 11.635 56.4238 10.4511 55.7254 9.26562C55.3449 9.26562 54.9688 9.26562 54.5883 9.26562C54.5883 10.2824 54.5883 11.2991 54.5883 12.3113C54.5883 12.5295 54.6106 12.7616 54.4942 12.952C54.3823 13.1655 54.1361 13.2445 53.9167 13.2491C53.6391 13.2491 53.3601 13.2491 53.0795 13.2491C52.8601 13.2491 52.6228 13.1702 52.4975 12.9705C52.3676 12.757 52.3855 12.497 52.3855 12.2555C52.3855 8.60015 52.3855 4.94322 52.3855 1.28473C52.3855 1.05259 52.4527 0.792598 52.6542 0.662601ZM34.1864 2.26435C34.1819 1.92079 34.4774 1.62829 34.8087 1.63294C35.1265 1.63294 35.4444 1.62365 35.7668 1.63758C36.0712 1.66079 36.3219 1.944 36.3264 2.25971C36.3353 2.91898 36.3264 3.58289 36.3309 4.24216C36.7875 4.2468 37.2487 4.24216 37.7098 4.2468C37.9695 4.2468 38.2291 4.42323 38.2963 4.69715C38.359 4.95714 38.3411 5.23571 38.3231 5.50499C38.2918 5.81141 38.0232 6.04819 37.7277 6.05283C37.2621 6.07605 36.792 6.05283 36.3264 6.06676C36.3353 7.24138 36.3264 8.42064 36.3309 9.59989C36.3353 9.99917 36.407 10.4263 36.6577 10.7467C36.9039 11.0856 37.3203 11.2341 37.7143 11.2806C37.9381 11.3084 38.1933 11.3363 38.35 11.5266C38.4978 11.7356 38.4754 12.0095 38.4754 12.2509C38.4664 12.5063 38.5112 12.7802 38.3814 13.0077C38.2649 13.2305 38.0008 13.3141 37.768 13.3327C36.8994 13.3791 35.9951 13.1609 35.2922 12.6223C34.7191 12.1905 34.3341 11.522 34.2043 10.807C34.0968 10.3149 34.1371 9.80882 34.1282 9.3074C34.1237 8.22564 34.1371 7.13924 34.1237 6.05748C33.8013 6.05283 33.4208 6.12712 33.1522 5.89498C32.8925 5.64427 32.9686 5.24964 32.9596 4.92C32.9462 4.63215 33.1253 4.33502 33.4029 4.27002C33.6625 4.2143 33.9267 4.25609 34.1864 4.24216C34.1864 3.58289 34.1819 2.92362 34.1864 2.26435ZM19.0226 4.55787C19.9583 3.97288 21.0955 3.79181 22.1655 3.94967C22.9579 4.07038 23.719 4.4418 24.2652 5.05464C25.0442 5.90426 25.3621 7.11602 25.3442 8.27207C25.3487 8.69456 24.9592 9.04741 24.5607 9.03348C22.7833 9.03812 21.0015 9.02884 19.2196 9.03812C19.2823 9.85989 19.6897 10.6677 20.3836 11.0995C21.3551 11.7263 22.6356 11.6009 23.5981 11.0206C23.8354 10.8627 24.1354 10.7374 24.413 10.8488C24.6771 10.9834 24.7756 11.2899 24.9278 11.5266C25.1069 11.8145 25.1024 12.2463 24.8204 12.4598C23.8668 13.1423 22.7027 13.4952 21.5477 13.4627C20.6299 13.4441 19.7031 13.1887 18.9331 12.6502C18.069 12.0698 17.4377 11.1459 17.1557 10.1199C16.8736 9.10776 16.9005 8.00743 17.2005 7.0046C17.5004 5.99712 18.1496 5.10107 19.0226 4.55787ZM20.3075 5.93212C19.73 6.2989 19.3852 6.95817 19.2733 7.63601C20.5672 7.63601 21.8655 7.63601 23.1594 7.63137C23.1415 7.02317 22.9355 6.38711 22.461 6.00176C21.8521 5.50035 20.9522 5.5282 20.3075 5.93212ZM28.8811 3.9311C29.8481 3.81503 30.8465 3.97752 31.715 4.43251C31.912 4.54394 32.1538 4.63679 32.2523 4.86429C32.3642 5.115 32.297 5.41213 32.1672 5.64427C32.0419 5.86712 31.9434 6.14569 31.6971 6.25247C31.433 6.35925 31.1599 6.23854 30.9181 6.12247C30.3943 5.87177 29.8168 5.70927 29.2347 5.74177C28.9751 5.7557 28.702 5.8207 28.4871 5.98783C28.2006 6.21069 28.1021 6.67496 28.3035 6.98603C28.4602 7.21816 28.7065 7.36209 28.9482 7.47351C29.6422 7.79386 30.3943 7.97029 31.0703 8.33707C31.6165 8.61563 32.1359 9.03812 32.3776 9.63704C32.7089 10.4495 32.6104 11.4431 32.109 12.1627C31.6613 12.8173 30.9315 13.212 30.1794 13.3652C28.7781 13.6577 27.2648 13.3095 26.1187 12.4273C25.9217 12.2509 25.877 11.9491 25.9844 11.7123C26.074 11.5081 26.2038 11.327 26.3291 11.1459C26.4455 10.9741 26.6336 10.8349 26.8485 10.8534C27.1529 10.872 27.4081 11.0763 27.6812 11.2063C28.2453 11.5034 28.8855 11.6798 29.5258 11.6102C29.8168 11.5731 30.1212 11.4616 30.3092 11.2202C30.5107 10.9649 30.551 10.5609 30.3451 10.3009C30.1257 10.0224 29.7944 9.8831 29.4855 9.74846C28.6751 9.41883 27.8066 9.19133 27.0902 8.65277C26.6828 8.35099 26.3515 7.91922 26.2127 7.41316C26.0113 6.67032 26.0963 5.81605 26.5396 5.18C27.0723 4.40001 27.9991 4.03324 28.8811 3.9311ZM44.206 4.67394C45.3834 4.01467 46.7758 3.74074 48.0965 3.98217C48.8218 4.11681 49.5292 4.46501 50.0127 5.05C50.55 5.69534 50.7783 6.56818 50.7872 7.40852C50.7872 9.12014 50.7872 10.8318 50.7872 12.5434C50.7917 12.7802 50.7022 13.0402 50.4918 13.1562C50.2634 13.2862 49.9903 13.2398 49.7441 13.2491C49.5068 13.2445 49.2516 13.2816 49.0367 13.147C48.8711 13.0448 48.7815 12.8498 48.7636 12.6548C48.7368 12.3484 48.7502 12.042 48.786 11.7356C48.3652 12.4784 47.6981 13.0959 46.8877 13.3373C46.0505 13.5834 45.1148 13.4766 44.3582 13.0355C43.7807 12.6966 43.333 12.1209 43.1673 11.4523C42.9838 10.7142 43.0643 9.87846 43.4986 9.25169C43.8836 8.6667 44.5059 8.30457 45.1372 8.06779C46.243 7.66851 47.425 7.58494 48.5845 7.60351C48.6069 7.12531 48.5398 6.59139 48.195 6.23854C47.8772 5.89498 47.3981 5.79284 46.9594 5.7882C46.346 5.79748 45.7371 5.97855 45.1999 6.27104C44.976 6.39175 44.694 6.47068 44.4567 6.35461C44.2552 6.25247 44.1612 6.03426 44.0627 5.83927C43.9597 5.64427 43.8478 5.43999 43.8613 5.2125C43.8657 4.98036 44.018 4.78072 44.206 4.67394ZM46.5161 9.19597C46.1356 9.31204 45.7416 9.48382 45.4954 9.8181C45.1954 10.2035 45.1954 10.7931 45.473 11.1924C45.6745 11.4941 46.0237 11.6566 46.3684 11.7031C46.9236 11.782 47.4921 11.5452 47.8772 11.132C48.4144 10.5795 48.6562 9.76703 48.598 8.99169C47.8995 8.98241 47.1922 9.00562 46.5161 9.19597ZM63.9229 3.9636C65.1272 3.76396 66.4793 3.98217 67.3971 4.86893C68.3059 5.71855 68.673 7.02781 68.6596 8.26742C68.6596 8.55992 68.476 8.82455 68.2298 8.95455C68.0239 9.05669 67.7911 9.03348 67.5672 9.03348C65.8898 9.03348 64.2124 9.03348 62.535 9.03348C62.5932 9.89239 63.0409 10.7327 63.7796 11.1552C64.7511 11.7263 65.9913 11.5823 66.927 11.0066C67.1553 10.8581 67.4419 10.7467 67.7105 10.8442C67.9522 10.9463 68.0552 11.2202 68.1895 11.4338C68.3283 11.6659 68.4313 11.9631 68.3104 12.2277C68.2253 12.4366 68.0194 12.5434 67.8448 12.6548C66.7524 13.3327 65.4272 13.6019 64.1691 13.4023C63.3006 13.2723 62.4589 12.8962 61.7963 12.2973C60.9009 11.4941 60.3681 10.3009 60.2875 9.07991C60.2069 7.90529 60.4621 6.67032 61.1382 5.70463C61.7829 4.75751 62.8215 4.13538 63.9229 3.9636ZM63.2916 6.2014C62.9021 6.57282 62.6828 7.10209 62.5843 7.63601C63.8796 7.63601 65.175 7.63601 66.4703 7.63601C66.4569 7.17638 66.345 6.7121 66.0853 6.34068C65.8256 5.95534 65.4003 5.70463 64.9526 5.64427C64.3572 5.56534 63.7214 5.76034 63.2916 6.2014Z" fill="#3A5896"/>
</g>
<defs>
<clipPath id="clip0_6180_1279">
<rect width="68.3645" height="12.9533" fill="white" transform="translate(0.317383 0.523315)"/>
</clipPath>
</defs>
</svg>
